#!OML:ASF F:\VICON\USERDATA\INSTALL\rory3\rory3.ASF
:FULLY-SPECIFIED
:DEGREES
659
root -17.14 17.817 7.28395 14.7388 69.7795 8.46687
lowerback 2.97058 2.81976 -3.31242
upperback 2.45751 3.7305 -1.45634
thorax 0.748384 1.84906 0.270132
lowerneck -5.06797 6.38222 -0.947543
upperneck 26.2067 10.1168 -0.806569
head 9.03395 4.83253 0.845373
rclavicle -2.93891e-014 1.33186e-014
rhumerus -33.5188 -6.39829 -80.4868
rradius 31.8833
rwrist -5.81696
rhand -10.6957 16.9602
rfingers 7.12502
rthumb 15.3136 -12.4528
lclavicle -2.93891e-014 1.33186e-014
lhumerus -35.3329 6.01306 72.7799
lradius 33.2693
lwrist 14.5526
lhand -6.37591 28.052
lfingers 7.12502
lthumb 19.471 57.0971
rfemur -30.5049 -27.3988 28.6819
rtibia 36.1914
rfoot -28.5273 -33.5798
rtoes 20.0912
lfemur -13.1232 7.99354 -29.8743
ltibia 24.0594
lfoot -27.576 17.2185
ltoes 8.00374
660
root -17.1546 17.8099 7.28528 15.062 70.3565 8.83186
lowerback 3.01147 2.79339 -3.41727
upperback 2.45861 3.69405 -1.57675
thorax 0.729469 1.83163 0.204044
lowerneck -5.11316 6.31256 -0.908191
upperneck 26.18 10.02 -0.821115
head 9.03549 4.79017 0.826982
rclavicle -2.20899e-014 1.87852e-014
rhumerus -33.6376 -6.47349 -80.5835
rradius 32.0836
rwrist -5.76353
rhand -10.7306 16.8643
rfingers 7.12502
rthumb 15.28 -12.5513
lclavicle -2.20899e-014 1.87852e-014
lhumerus -35.2765 6.871 71.9983
lradius 32.908
lwrist 14.2829
lhand -6.31439 28.2214
lfingers 7.12502
lthumb 19.5301 57.2605
rfemur -30.8207 -27.8864 28.6002
rtibia 36.8935
rfoot -28.2327 -33.2505
rtoes 19.5622
lfemur -13.1208 7.82632 -29.8383
ltibia 24.0279
lfoot -27.2905 17.1253
ltoes 7.80329
661
root -17.1674 17.8042 7.28439 15.3131 70.9411 9.13276
lowerback 3.04523 2.76203 -3.52931
upperback 2.47474 3.65069 -1.62791
thorax 0.725197 1.80956 0.213742
lowerneck -5.12944 6.23992 -0.972679
upperneck 26.1078 9.92367 -0.817966
head 9.0093 4.7415 0.828563
rclavicle 5.88154e-014 -1.55052e-014
rhumerus -33.6343 -6.23657 -80.681
rradius 32.1266
rwrist -5.95201
rhand -11.1125 16.8742
rfingers 7.12502
rthumb 14.9121 -12.569
lclavicle 5.88154e-014 -1.55052e-014
lhumerus -35.3537 7.27374 71.5337
lradius 32.8285
lwrist 14.3062
lhand -6.41079 28.325
lfingers 7.12502
lthumb 19.4374 57.3734
rfemur -31.0871 -28.217 28.4552
rtibia 37.5914
rfoot -28.3533 -32.8036
rtoes 19.9703
lfemur -13.1401 7.67583 -29.7822
ltibia 24.0674
lfoot -26.946 16.7035
ltoes 8.20647
662
root -17.1782 17.8028 7.28257 15.8629 71.487 9.73013
lowerback 3.00044 2.73993 -3.80245
upperback 2.50413 3.62082 -1.65833
thorax 0.767372 1.79116 0.337978
lowerneck -5.0969 6.18893 -1.06169
upperneck 26.036 9.86087 -0.810329
head 8.97291 4.70812 0.836554
rclavicle -4.72114e-014 -5.56597e-015
rhumerus -33.5839 -5.97017 -80.726
rradius 32.056
rwrist -6.13631
rhand -11.4576 16.9367
rfingers 7.12502
rthumb 14.5796 -12.5309
lclavicle -4.72114e-014 -5.56597e-015
lhumerus -35.4895 7.35947 71.3231
lradius 32.891
lwrist 14.7102
lhand -6.96698 28.6507
lfingers 7.12502
lthumb 18.9026 57.7522
rfemur -31.3773 -28.5637 28.2283
rtibia 38.2709
rfoot -27.5915 -32.5961
rtoes 19.0159
lfemur -13.1804 7.55864 -29.8533
ltibia 24.1475
lfoot -26.7862 16.2965
ltoes 8.34613
663
root -17.1861 17.8009 7.27965 16.093 72.0921 10.0241
lowerback 2.99243 2.72052 -3.91773
upperback 2.53304 3.5956 -1.67239
thorax 0.796723 1.77699 0.389446
lowerneck -5.12909 6.14115 -1.15343
upperneck 26.0665 9.79722 -0.732784
head 8.98023 4.67886 0.873958
rclavicle 2.18663e-015 1.14301e-014
rhumerus -33.6033 -6.07339 -80.641
rradius 32.0151
rwrist -6.02377
rhand -11.5338 17.0246
rfingers 7.12502
rthumb 14.5062 -12.4483
lclavicle 2.18663e-015 1.14301e-014
lhumerus -35.5102 7.7259 71.0453
lradius 32.7703
lwrist 15.0578
lhand -7.37111 28.9931
lfingers 7.12502
lthumb 18.5139 58.132
rfemur -31.5795 -28.9636 28.0762
rtibia 38.9514
rfoot -26.9395 -32.3299
rtoes 18.2206
lfemur -13.1389 7.35191 -29.798
ltibia 24.1745
lfoot -26.6548 16.1123
ltoes 7.94414
664
root -17.1928 17.8011 7.27663 16.2789 72.6885 10.2866
lowerback 3.00088 2.71141 -3.98335
upperback 2.58437 3.58565 -1.6953
thorax 0.84298 1.77089 0.403763
lowerneck -5.18313 6.07316 -1.24895
upperneck 26.0104 9.69742 -0.666043
head 8.96163 4.63104 0.903475
rclavicle -3.81418e-014 -6.26172e-015
rhumerus -33.5901 -6.26788 -80.5281
rradius 31.9523
rwrist -5.89434
rhand -11.488 17.0833
rfingers 7.12502
rthumb 14.5503 -12.3864
lclavicle -3.81418e-014 -6.26172e-015
lhumerus -35.3994 8.62415 70.4975
lradius 32.3795
lwrist 14.7135
lhand -7.17158 28.7124
lfingers 7.12502
lthumb 18.7058 57.8331
rfemur -31.7244 -29.2411 27.8834
rtibia 39.6113
rfoot -26.5072 -32.1035
rtoes 17.7516
lfemur -13.0885 7.0729 -29.7112
ltibia 24.1834
lfoot -26.2256 15.792
ltoes 8.29055
665
root -17.1999 17.8052 7.27474 16.6521 73.2114 10.7239
lowerback 2.97636 2.72901 -4.27809
upperback 2.62072 3.60606 -1.61957
thorax 0.871531 1.77565 0.64602
lowerneck -5.22301 5.98937 -1.39331
upperneck 25.9822 9.61538 -0.710987
head 8.95479 4.57692 0.905906
rclavicle -9.94669e-014 3.84648e-014
rhumerus -33.6381 -6.19417 -80.3248
rradius 31.917
rwrist -5.86657
rhand -11.676 17.0875
rfingers 7.12502
rthumb 14.3692 -12.3952
lclavicle -9.94669e-014 3.84648e-014
lhumerus -35.4218 9.48204 70.1084
lradius 32.1177
lwrist 14.2509
lhand -7.20832 28.6382
lfingers 7.12502
lthumb 18.6705 57.7622
rfemur -31.8859 -29.4561 27.6715
rtibia 40.2195
rfoot -25.9509 -31.8189
rtoes 17.6129
lfemur -13.0919 6.85251 -29.6944
ltibia 24.2403
lfoot -25.8288 15.4708
ltoes 8.34426
666
root -17.2082 17.8091 7.27374 16.5949 73.779 10.7057
lowerback 2.98129 2.7552 -4.54249
upperback 2.62713 3.63285 -1.43198
thorax 0.846721 1.78342 0.983184
lowerneck -5.24532 5.91686 -1.40915
upperneck 25.9846 9.58341 -0.942521
head 8.97297 4.54023 0.830543
rclavicle -3.65515e-014 6.4605e-015
rhumerus -33.7101 -6.00087 -80.0301
rradius 31.8091
rwrist -5.8388
rhand -11.8694 17.1393
rfingers 7.12502
rthumb 14.1828 -12.3566
lclavicle -3.65515e-014 6.4605e-015
lhumerus -35.4857 10.0317 70.0077
lradius 32.0223
lwrist 14.3912
lhand -7.50053 29.0352
lfingers 7.12502
lthumb 18.3894 58.1859
rfemur -32.0158 -29.5901 27.5869
rtibia 40.7965
rfoot -24.7397 -31.8573
rtoes 15.9227
lfemur -13.0876 6.61261 -29.5205
ltibia 24.2955
lfoot -25.6947 15.1878
ltoes 8.04917
